<mxfile host="app.diagrams.net" modified="2023-11-14T23:40:14.597Z" agent="Mozilla/5.0 (Windows NT 10.0; Win64; x64) AppleWebKit/537.36 (KHTML, like Gecko) Chrome/118.0.0.0 Safari/537.36" etag="niFj8w6ZQWPtJQm7n69J" version="22.1.1" type="device">
  <diagram name="Página-1" id="bpvRA7cdBOYFnKxdJfXn">
    <mxGraphModel dx="2184" dy="2125" grid="1" gridSize="10" guides="1" tooltips="1" connect="1" arrows="1" fold="1" page="1" pageScale="1" pageWidth="827" pageHeight="1169" math="0" shadow="0">
      <root>
        <mxCell id="0" />
        <mxCell id="1" parent="0" />
        <mxCell id="tCdmHBLCtuYw4xvbm4xi-1" value="Equipe Técnica - N2" style="swimlane;horizontal=0;whiteSpace=wrap;html=1;" vertex="1" parent="1">
          <mxGeometry x="10" y="40" width="1400" height="190" as="geometry">
            <mxRectangle x="10" y="20" width="40" height="50" as="alternateBounds" />
          </mxGeometry>
        </mxCell>
        <mxCell id="tCdmHBLCtuYw4xvbm4xi-40" style="edgeStyle=orthogonalEdgeStyle;rounded=0;orthogonalLoop=1;jettySize=auto;html=1;exitX=1;exitY=0.5;exitDx=0;exitDy=0;" edge="1" parent="tCdmHBLCtuYw4xvbm4xi-1" source="tCdmHBLCtuYw4xvbm4xi-37" target="tCdmHBLCtuYw4xvbm4xi-39">
          <mxGeometry relative="1" as="geometry" />
        </mxCell>
        <mxCell id="tCdmHBLCtuYw4xvbm4xi-37" value="Analisar solicitação" style="rounded=1;whiteSpace=wrap;html=1;fillColor=#b8c9ff;" vertex="1" parent="tCdmHBLCtuYw4xvbm4xi-1">
          <mxGeometry x="312" y="68" width="120" height="60" as="geometry" />
        </mxCell>
        <mxCell id="tCdmHBLCtuYw4xvbm4xi-43" value="" style="edgeStyle=orthogonalEdgeStyle;rounded=0;orthogonalLoop=1;jettySize=auto;html=1;" edge="1" parent="tCdmHBLCtuYw4xvbm4xi-1" source="tCdmHBLCtuYw4xvbm4xi-39" target="tCdmHBLCtuYw4xvbm4xi-41">
          <mxGeometry relative="1" as="geometry" />
        </mxCell>
        <mxCell id="tCdmHBLCtuYw4xvbm4xi-39" value="" style="rhombus;whiteSpace=wrap;html=1;fillColor=#FFFF66;" vertex="1" parent="tCdmHBLCtuYw4xvbm4xi-1">
          <mxGeometry x="492" y="78" width="40" height="40" as="geometry" />
        </mxCell>
        <mxCell id="tCdmHBLCtuYw4xvbm4xi-44" value="" style="edgeStyle=orthogonalEdgeStyle;rounded=0;orthogonalLoop=1;jettySize=auto;html=1;" edge="1" parent="tCdmHBLCtuYw4xvbm4xi-1" source="tCdmHBLCtuYw4xvbm4xi-41" target="tCdmHBLCtuYw4xvbm4xi-42">
          <mxGeometry relative="1" as="geometry" />
        </mxCell>
        <mxCell id="tCdmHBLCtuYw4xvbm4xi-41" value="Gerenciar solicitações" style="rounded=1;whiteSpace=wrap;html=1;fillColor=#b8c9ff;" vertex="1" parent="tCdmHBLCtuYw4xvbm4xi-1">
          <mxGeometry x="582" y="68" width="130" height="60" as="geometry" />
        </mxCell>
        <mxCell id="tCdmHBLCtuYw4xvbm4xi-42" value="Atender solicitação - Equipe técnica - N2" style="rounded=1;whiteSpace=wrap;html=1;fillColor=#b8c9ff;" vertex="1" parent="tCdmHBLCtuYw4xvbm4xi-1">
          <mxGeometry x="802" y="58" width="120" height="80" as="geometry" />
        </mxCell>
        <mxCell id="tCdmHBLCtuYw4xvbm4xi-45" style="edgeStyle=orthogonalEdgeStyle;rounded=0;orthogonalLoop=1;jettySize=auto;html=1;exitX=0.5;exitY=1;exitDx=0;exitDy=0;entryX=0;entryY=0.25;entryDx=0;entryDy=0;" edge="1" parent="tCdmHBLCtuYw4xvbm4xi-1" source="tCdmHBLCtuYw4xvbm4xi-23">
          <mxGeometry relative="1" as="geometry">
            <mxPoint x="918" y="-70" as="sourcePoint" />
            <mxPoint x="160" y="113" as="targetPoint" />
            <Array as="points">
              <mxPoint x="890" y="-70" />
              <mxPoint x="160" y="-70" />
            </Array>
          </mxGeometry>
        </mxCell>
        <mxCell id="tCdmHBLCtuYw4xvbm4xi-3" value="Atendimento - N1" style="swimlane;horizontal=0;whiteSpace=wrap;html=1;startSize=23;" vertex="1" parent="1">
          <mxGeometry x="9" y="-190" width="1401" height="230" as="geometry" />
        </mxCell>
        <mxCell id="tCdmHBLCtuYw4xvbm4xi-19" style="edgeStyle=orthogonalEdgeStyle;rounded=0;orthogonalLoop=1;jettySize=auto;html=1;exitX=1;exitY=0.5;exitDx=0;exitDy=0;entryX=0;entryY=0.5;entryDx=0;entryDy=0;" edge="1" parent="tCdmHBLCtuYw4xvbm4xi-3" source="tCdmHBLCtuYw4xvbm4xi-13" target="tCdmHBLCtuYw4xvbm4xi-18">
          <mxGeometry relative="1" as="geometry" />
        </mxCell>
        <mxCell id="tCdmHBLCtuYw4xvbm4xi-13" value="Receber solicitação de serviço - Atendimento" style="rounded=1;whiteSpace=wrap;html=1;fillColor=#b8c9ff;" vertex="1" parent="tCdmHBLCtuYw4xvbm4xi-3">
          <mxGeometry x="350" y="60" width="120" height="60" as="geometry" />
        </mxCell>
        <mxCell id="tCdmHBLCtuYw4xvbm4xi-30" style="edgeStyle=orthogonalEdgeStyle;rounded=0;orthogonalLoop=1;jettySize=auto;html=1;exitX=1;exitY=0.5;exitDx=0;exitDy=0;entryX=0;entryY=0.5;entryDx=0;entryDy=0;" edge="1" parent="tCdmHBLCtuYw4xvbm4xi-3" source="tCdmHBLCtuYw4xvbm4xi-18" target="tCdmHBLCtuYw4xvbm4xi-22">
          <mxGeometry relative="1" as="geometry" />
        </mxCell>
        <mxCell id="tCdmHBLCtuYw4xvbm4xi-18" value="Registrar solicitação de serviço" style="rounded=1;whiteSpace=wrap;html=1;fillColor=#b8c9ff;" vertex="1" parent="tCdmHBLCtuYw4xvbm4xi-3">
          <mxGeometry x="520" y="60" width="120" height="60" as="geometry" />
        </mxCell>
        <mxCell id="tCdmHBLCtuYw4xvbm4xi-22" value="" style="rhombus;whiteSpace=wrap;html=1;fillColor=#FFFF66;" vertex="1" parent="tCdmHBLCtuYw4xvbm4xi-3">
          <mxGeometry x="710" y="70" width="40" height="40" as="geometry" />
        </mxCell>
        <mxCell id="tCdmHBLCtuYw4xvbm4xi-21" value="Consultar base de conhecimento" style="rounded=1;whiteSpace=wrap;html=1;fillColor=#b8c9ff;" vertex="1" parent="tCdmHBLCtuYw4xvbm4xi-3">
          <mxGeometry x="520" y="200" width="120" height="60" as="geometry" />
        </mxCell>
        <mxCell id="tCdmHBLCtuYw4xvbm4xi-35" style="edgeStyle=orthogonalEdgeStyle;rounded=0;orthogonalLoop=1;jettySize=auto;html=1;exitX=0.5;exitY=1;exitDx=0;exitDy=0;entryX=0.5;entryY=0;entryDx=0;entryDy=0;" edge="1" parent="tCdmHBLCtuYw4xvbm4xi-3" source="tCdmHBLCtuYw4xvbm4xi-18" target="tCdmHBLCtuYw4xvbm4xi-21">
          <mxGeometry relative="1" as="geometry" />
        </mxCell>
        <mxCell id="tCdmHBLCtuYw4xvbm4xi-4" value="Cliente" style="swimlane;horizontal=0;whiteSpace=wrap;html=1;" vertex="1" parent="1">
          <mxGeometry x="10" y="-390" width="1400" height="200" as="geometry" />
        </mxCell>
        <mxCell id="tCdmHBLCtuYw4xvbm4xi-14" style="edgeStyle=orthogonalEdgeStyle;rounded=0;orthogonalLoop=1;jettySize=auto;html=1;exitX=1;exitY=0.5;exitDx=0;exitDy=0;entryX=0;entryY=0.5;entryDx=0;entryDy=0;" edge="1" parent="tCdmHBLCtuYw4xvbm4xi-4" source="tCdmHBLCtuYw4xvbm4xi-8" target="tCdmHBLCtuYw4xvbm4xi-9">
          <mxGeometry relative="1" as="geometry" />
        </mxCell>
        <mxCell id="tCdmHBLCtuYw4xvbm4xi-15" style="edgeStyle=orthogonalEdgeStyle;rounded=0;orthogonalLoop=1;jettySize=auto;html=1;exitX=1;exitY=0.5;exitDx=0;exitDy=0;entryX=0;entryY=0.5;entryDx=0;entryDy=0;" edge="1" parent="tCdmHBLCtuYw4xvbm4xi-4" source="tCdmHBLCtuYw4xvbm4xi-8" target="tCdmHBLCtuYw4xvbm4xi-10">
          <mxGeometry relative="1" as="geometry">
            <Array as="points">
              <mxPoint x="80" y="100" />
              <mxPoint x="80" y="40" />
              <mxPoint x="240" y="40" />
              <mxPoint x="240" y="100" />
            </Array>
          </mxGeometry>
        </mxCell>
        <mxCell id="tCdmHBLCtuYw4xvbm4xi-8" value="" style="ellipse;whiteSpace=wrap;html=1;aspect=fixed;fillColor=#57FF52;strokeColor=#000000;" vertex="1" parent="tCdmHBLCtuYw4xvbm4xi-4">
          <mxGeometry x="30" y="80" width="40" height="40" as="geometry" />
        </mxCell>
        <mxCell id="tCdmHBLCtuYw4xvbm4xi-36" style="edgeStyle=orthogonalEdgeStyle;rounded=0;orthogonalLoop=1;jettySize=auto;html=1;exitX=0.5;exitY=1;exitDx=0;exitDy=0;entryX=0.005;entryY=0.711;entryDx=0;entryDy=0;entryPerimeter=0;" edge="1" parent="tCdmHBLCtuYw4xvbm4xi-4" source="tCdmHBLCtuYw4xvbm4xi-9" target="tCdmHBLCtuYw4xvbm4xi-20">
          <mxGeometry relative="1" as="geometry">
            <Array as="points">
              <mxPoint x="160" y="314" />
              <mxPoint x="100" y="314" />
              <mxPoint x="100" y="541" />
            </Array>
          </mxGeometry>
        </mxCell>
        <mxCell id="tCdmHBLCtuYw4xvbm4xi-9" value="Solicitar serviço via Web" style="rounded=1;whiteSpace=wrap;html=1;fillColor=#b8c9ff;" vertex="1" parent="tCdmHBLCtuYw4xvbm4xi-4">
          <mxGeometry x="100" y="70" width="120" height="60" as="geometry" />
        </mxCell>
        <mxCell id="tCdmHBLCtuYw4xvbm4xi-10" value="Solicitar serviço via Central de Atendimento" style="rounded=1;whiteSpace=wrap;html=1;fillColor=#b8c9ff;" vertex="1" parent="tCdmHBLCtuYw4xvbm4xi-4">
          <mxGeometry x="260" y="70" width="120" height="60" as="geometry" />
        </mxCell>
        <mxCell id="tCdmHBLCtuYw4xvbm4xi-20" value="Registrar solicitação de serviço" style="rounded=1;whiteSpace=wrap;html=1;fillColor=#b8c9ff;" vertex="1" parent="tCdmHBLCtuYw4xvbm4xi-4">
          <mxGeometry x="132" y="498" width="120" height="60" as="geometry" />
        </mxCell>
        <mxCell id="tCdmHBLCtuYw4xvbm4xi-2" value="Equipe Técnica - N3" style="swimlane;horizontal=0;whiteSpace=wrap;html=1;" vertex="1" parent="1">
          <mxGeometry x="10" y="230" width="1400" height="200" as="geometry" />
        </mxCell>
        <mxCell id="tCdmHBLCtuYw4xvbm4xi-5" value="Fornecedor" style="swimlane;horizontal=0;whiteSpace=wrap;html=1;" vertex="1" parent="1">
          <mxGeometry x="10" y="430" width="1400" height="200" as="geometry" />
        </mxCell>
        <mxCell id="tCdmHBLCtuYw4xvbm4xi-16" style="edgeStyle=orthogonalEdgeStyle;rounded=0;orthogonalLoop=1;jettySize=auto;html=1;exitX=0.5;exitY=1;exitDx=0;exitDy=0;entryX=0;entryY=0.5;entryDx=0;entryDy=0;" edge="1" parent="1" source="tCdmHBLCtuYw4xvbm4xi-10" target="tCdmHBLCtuYw4xvbm4xi-13">
          <mxGeometry relative="1" as="geometry" />
        </mxCell>
        <mxCell id="tCdmHBLCtuYw4xvbm4xi-23" value="Encaminhar solicitação para atendimento em 2º nível" style="rounded=1;whiteSpace=wrap;html=1;fillColor=#b8c9ff;" vertex="1" parent="1">
          <mxGeometry x="840" y="-140" width="120" height="80" as="geometry" />
        </mxCell>
        <mxCell id="tCdmHBLCtuYw4xvbm4xi-25" style="edgeStyle=orthogonalEdgeStyle;rounded=0;orthogonalLoop=1;jettySize=auto;html=1;exitX=1;exitY=0.5;exitDx=0;exitDy=0;" edge="1" parent="1" source="tCdmHBLCtuYw4xvbm4xi-22" target="tCdmHBLCtuYw4xvbm4xi-23">
          <mxGeometry relative="1" as="geometry" />
        </mxCell>
        <mxCell id="tCdmHBLCtuYw4xvbm4xi-34" style="edgeStyle=orthogonalEdgeStyle;rounded=0;orthogonalLoop=1;jettySize=auto;html=1;exitX=0.5;exitY=1;exitDx=0;exitDy=0;entryX=0;entryY=0.5;entryDx=0;entryDy=0;" edge="1" parent="1" source="tCdmHBLCtuYw4xvbm4xi-26" target="tCdmHBLCtuYw4xvbm4xi-31">
          <mxGeometry relative="1" as="geometry" />
        </mxCell>
        <mxCell id="tCdmHBLCtuYw4xvbm4xi-26" value="Atender solicitação - Atendimento" style="rounded=1;whiteSpace=wrap;html=1;fillColor=#b8c9ff;" vertex="1" parent="1">
          <mxGeometry x="1020" y="-140" width="120" height="80" as="geometry" />
        </mxCell>
        <mxCell id="tCdmHBLCtuYw4xvbm4xi-27" style="edgeStyle=orthogonalEdgeStyle;rounded=0;orthogonalLoop=1;jettySize=auto;html=1;entryX=0.5;entryY=0;entryDx=0;entryDy=0;exitX=0.5;exitY=0;exitDx=0;exitDy=0;" edge="1" parent="1" source="tCdmHBLCtuYw4xvbm4xi-22" target="tCdmHBLCtuYw4xvbm4xi-26">
          <mxGeometry relative="1" as="geometry">
            <mxPoint x="730" y="-130" as="sourcePoint" />
            <Array as="points">
              <mxPoint x="740" y="-160" />
              <mxPoint x="1080" y="-160" />
            </Array>
          </mxGeometry>
        </mxCell>
        <mxCell id="tCdmHBLCtuYw4xvbm4xi-32" style="edgeStyle=orthogonalEdgeStyle;rounded=0;orthogonalLoop=1;jettySize=auto;html=1;exitX=1;exitY=0.5;exitDx=0;exitDy=0;" edge="1" parent="1" source="tCdmHBLCtuYw4xvbm4xi-31" target="tCdmHBLCtuYw4xvbm4xi-7">
          <mxGeometry relative="1" as="geometry" />
        </mxCell>
        <mxCell id="tCdmHBLCtuYw4xvbm4xi-31" value="Atender solicitação - Atendimento" style="rounded=1;whiteSpace=wrap;html=1;fillColor=#b8c9ff;" vertex="1" parent="1">
          <mxGeometry x="1180" width="120" height="80" as="geometry" />
        </mxCell>
        <mxCell id="tCdmHBLCtuYw4xvbm4xi-7" value="" style="ellipse;whiteSpace=wrap;html=1;aspect=fixed;fillColor=#FF3333;strokeColor=#000000;" vertex="1" parent="1">
          <mxGeometry x="1350" y="25" width="30" height="30" as="geometry" />
        </mxCell>
        <mxCell id="tCdmHBLCtuYw4xvbm4xi-38" style="edgeStyle=orthogonalEdgeStyle;rounded=0;orthogonalLoop=1;jettySize=auto;html=1;exitX=1;exitY=0.5;exitDx=0;exitDy=0;" edge="1" parent="1" source="tCdmHBLCtuYw4xvbm4xi-20" target="tCdmHBLCtuYw4xvbm4xi-37">
          <mxGeometry relative="1" as="geometry" />
        </mxCell>
      </root>
    </mxGraphModel>
  </diagram>
</mxfile>
